<svg width="54" height="42" viewBox="0 0 54 42" fill="none" xmlns="http://www.w3.org/2000/svg">
<path d="M8.05828 24.4408L19.7791 3.51226C20.1554 2.84048 21.1178 2.82806 21.5112 3.48991L39.344 33.489C39.7403 34.1556 39.2599 35 38.4844 35H3.37357C2.61399 35 2.13173 34.1865 2.49623 33.5201L2.70835 33.1323C2.88376 32.8116 3.22016 32.6122 3.58569 32.6122H30.6096C32.9277 32.6122 34.37 30.0952 33.1978 28.0952L22.3392 9.5682C22.0504 9.07554 21.5222 8.77285 20.9511 8.77285C20.3769 8.77285 19.8462 9.07887 19.5586 9.57584L10.3304 25.521C10.1212 25.8825 9.70937 26.0759 9.29759 26.006L9.13024 26.9919L9.29758 26.006L8.76343 25.9153C8.08192 25.7996 7.72051 25.0439 8.05828 24.4408Z" stroke="white" stroke-width="2"/>
<path d="M25.3333 21.0217C26.5932 18.7722 28.6163 17.381 30.8178 16.8559L22.4197 31.3668C22.1568 31.821 21.6393 32.064 21.122 31.9762C20.2657 31.8308 19.8116 30.8813 20.236 30.1235L25.3333 21.0217ZM38.1382 22.05L35.131 16.9192C37.1647 17.469 39.0279 18.7704 40.2518 20.8293L44.1585 27.4012C47.7247 33.4004 43.4013 41 36.4221 41H15.7006C14.7938 41 14.218 40.0288 14.6532 39.2332L13.7759 38.7533L14.6532 39.2332C14.8626 38.8503 15.2642 38.6122 15.7006 38.6122H28.648C37.1478 38.6122 42.4361 29.3831 38.1382 22.05Z" stroke="white" stroke-width="2"/>
</svg>
